<?xml version="1.0" encoding="UTF-8" standalone="no"?>
<svg
   height="512"
   viewBox="0 0 512 512"
   width="512"
   version="1.1"
   id="svg57"
   sodipodi:docname="cashier.svg"
   inkscape:version="1.1 (ce6663b3b7, 2021-05-25)"
   xmlns:inkscape="http://www.inkscape.org/namespaces/inkscape"
   xmlns:sodipodi="http://sodipodi.sourceforge.net/DTD/sodipodi-0.dtd"
   xmlns="http://www.w3.org/2000/svg"
   xmlns:svg="http://www.w3.org/2000/svg">
  <defs
     id="defs61" />
  <sodipodi:namedview
     id="namedview59"
     pagecolor="#505050"
     bordercolor="#eeeeee"
     borderopacity="1"
     inkscape:pageshadow="0"
     inkscape:pageopacity="0"
     inkscape:pagecheckerboard="0"
     showgrid="false"
     inkscape:zoom="0.61457523"
     inkscape:cx="49.627773"
     inkscape:cy="249.76601"
     inkscape:window-width="1366"
     inkscape:window-height="710"
     inkscape:window-x="0"
     inkscape:window-y="30"
     inkscape:window-maximized="1"
     inkscape:current-layer="svg57" />
  <path
     d="m 312,288 h 96 a 48,48 0 0 0 48,-48 V 136 H 312 Z"
     fill="#784533"
     id="path2"
     style="fill:#17223b;fill-opacity:1" />
  <path
     d="m 488,328 v 128 a 32,32 0 0 1 -32,32 H 248 V 328 a 40,40 0 0 1 40,-40 h 32 a 16,16 0 0 0 16,-16 v -56 h 64 v 56 a 16,16 0 0 0 16,16 h 32 a 40,40 0 0 1 40,40 z"
     fill="#fdc8a2"
     id="path4"
     style="fill:#b2c2de;fill-opacity:1" />
  <path
     d="m 400,208 v 48.51 a 72.1,72.1 0 0 1 -64,0 V 208 Z"
     fill="#fdb683"
     id="path6"
     style="fill:#9cafcf;fill-opacity:1" />
  <path
     d="m 424,288 h 24 a 40,40 0 0 1 40,40 v 128 a 32,32 0 0 1 -32,32 H 248 V 328 a 40,40 0 0 1 40,-40 h 24 l 1.144,2.861 A 59.082,59.082 0 0 0 368,328 59.082,59.082 0 0 0 422.856,290.861 Z"
     fill="#de5540"
     id="path8"
     style="fill:#6b778d;fill-opacity:1" />
  <path
     d="m 444,136 h -4 v 40 h 4 a 20,20 0 0 0 20,-20 20,20 0 0 0 -20,-20 z"
     fill="#fdbf92"
     id="path10"
     style="fill:#b2c2de;fill-opacity:1" />
  <path
     d="m 328,80 h 80 a 32,32 0 0 1 32,32 v 64 a 72,72 0 0 1 -72,72 72,72 0 0 1 -72,-72 v -64 a 32,32 0 0 1 32,-32 z"
     fill="#fdc8a2"
     id="path12"
     style="fill:#b2c2de;fill-opacity:1" />
  <path
     d="m 332,136 a 12,12 0 1 0 12,12 12.013,12.013 0 0 0 -12,-12 z"
     fill="#844e3a"
     id="path14"
     style="fill:#263859;fill-opacity:1" />
  <path
     d="m 404,136 a 12,12 0 1 0 12,12 12.013,12.013 0 0 0 -12,-12 z"
     fill="#844e3a"
     id="path16"
     style="fill:#263859;fill-opacity:1" />
  <path
     d="m 368,192 a 8.009,8.009 0 0 1 -8,-8 h -16 a 24,24 0 0 0 48,0 h -16 a 8.009,8.009 0 0 1 -8,8 z"
     fill="#fcb079"
     id="path18"
     style="fill:#263859;fill-opacity:1" />
  <path
     d="m 328,120 56,-40 56,56 h 16 v -24 a 88,88 0 0 0 -88,-88 88,88 0 0 0 -88,88 v 128 a 48,48 0 0 0 48,48 z"
     fill="#844e3a"
     id="path20"
     style="fill:#17223b;fill-opacity:1" />
  <path
     d="M 184,104 A 80,80 0 1 0 87.1,182.2 L 104,208 120.9,182.2 A 80.018,80.018 0 0 0 184,104 Z"
     fill="#ffb431"
     id="path26"
     style="fill:#6b778d;fill-opacity:1" />
  <path
     d="M 136,88 V 85.947 A 21.973,21.973 0 0 0 114.053,64 H 112 V 48 H 96 v 16 h -2.053 a 21.947,21.947 0 0 0 -6.94,42.768 l 28.927,9.643 A 5.947,5.947 0 0 1 114.053,128 H 93.947 A 5.954,5.954 0 0 1 88,122.053 V 120 H 72 v 2.053 A 21.973,21.973 0 0 0 93.947,144 H 96 v 16 h 16 v -16 h 2.053 a 21.947,21.947 0 0 0 6.94,-42.768 L 92.066,91.589 A 5.947,5.947 0 0 1 93.947,80 h 20.106 A 5.954,5.954 0 0 1 120,85.947 V 88 Z"
     fill="#ffc261"
     id="path28"
     style="fill:#b2c2de;fill-opacity:1" />
  <path
     d="m 352,440 v 48 h 104 a 32,32 0 0 0 32,-32 v -16 z"
     fill="#de5540"
     id="path30"
     style="fill:#6b778d;fill-opacity:1" />
  <path
     d="m 352,440 -32,-24 h -56 v 40 h 32 a 42.246,42.246 0 0 0 40.985,32 H 352 Z"
     fill="#fdc8a2"
     id="path32"
     style="fill:#b2c2de;fill-opacity:1" />
  <path
     d="M 304,488 H 24 V 360 h 176 32 l 72,88 z"
     fill="#3ba5d3"
     id="path34"
     style="fill:#263859;fill-opacity:1" />
  <path
     d="m 40,240 h 128 v 64 H 40 Z"
     fill="#4db6e4"
     id="path38"
     style="fill:#263859;fill-opacity:1" />
  <g
     fill="#2d96c3"
     id="g46"
     style="fill:#b2c2de;fill-opacity:1">
    <path
       d="m 128,264 h 16 v 16 h -16 z"
       id="path40"
       style="fill:#b2c2de;fill-opacity:1" />
    <path
       d="m 96,264 h 16 v 16 H 96 Z"
       id="path42"
       style="fill:#b2c2de;fill-opacity:1" />
    <path
       d="m 64,264 h 16 v 16 H 64 Z"
       id="path44"
       style="fill:#b2c2de;fill-opacity:1" />
  </g>
  <path
     d="m 48,384 h 16 v 16 H 48 Z"
     fill="#5cc1ed"
     id="path48"
     style="fill:#6b778d;fill-opacity:1" />
  <path
     d="m 48,416 h 16 v 48 H 48 Z"
     fill="#5cc1ed"
     id="path50"
     style="fill:#6b778d;fill-opacity:1" />
  <path
     d="m 88,304 h 32 v 56 H 88 Z"
     fill="#dfdfdd"
     id="path52"
     style="fill:#6b778d;fill-opacity:1" />
  <path
     d="m 480.78571,350.78571 h -78.92857 c -2.564,0 -4.64285,-2.07885 -4.64285,-4.64286 V 267.21429 C 397.21429,254.39429 386.82,244 374,244 c -12.82,0 -23.21429,10.39429 -23.21429,23.21429 v 78.92856 c 0,2.56401 -2.07885,4.64286 -4.64285,4.64286 H 267.21429 C 254.39429,350.78571 244,361.18 244,374 c 0,12.82 10.39429,23.21429 23.21429,23.21429 h 78.92857 c 2.564,0 4.64285,2.07885 4.64285,4.64285 v 78.92857 C 350.78571,493.60571 361.18,504 374,504 c 12.82,0 23.21429,-10.39429 23.21429,-23.21429 v -78.92857 c 0,-2.564 2.07885,-4.64285 4.64285,-4.64285 h 78.92857 C 493.60572,397.21429 504,386.82 504,374 c 0,-12.82 -10.39428,-23.21429 -23.21429,-23.21429 z m 0,0"
     fill="#263859"
     data-original="#000000"
     class=""
     id="path1747"
     style="fill:#17223b;fill-opacity:1;stroke-width:0.580358" />
</svg>
