<?xml version="1.0" encoding="UTF-8" standalone="no"?>
<svg
   height="512"
   viewBox="0 0 64 64"
   width="512"
   version="1.1"
   id="svg1665"
   sodipodi:docname="package.svg"
   inkscape:version="1.1 (ce6663b3b7, 2021-05-25)"
   xmlns:inkscape="http://www.inkscape.org/namespaces/inkscape"
   xmlns:sodipodi="http://sodipodi.sourceforge.net/DTD/sodipodi-0.dtd"
   xmlns="http://www.w3.org/2000/svg"
   xmlns:svg="http://www.w3.org/2000/svg">
  <defs
     id="defs1669" />
  <sodipodi:namedview
     id="namedview1667"
     pagecolor="#505050"
     bordercolor="#eeeeee"
     borderopacity="1"
     inkscape:pageshadow="0"
     inkscape:pageopacity="0"
     inkscape:pagecheckerboard="0"
     showgrid="false"
     inkscape:zoom="0.61457523"
     inkscape:cx="122.03551"
     inkscape:cy="244.88458"
     inkscape:window-width="1366"
     inkscape:window-height="710"
     inkscape:window-x="0"
     inkscape:window-y="30"
     inkscape:window-maximized="1"
     inkscape:current-layer="svg1665" />
  <path
     d="m 31.963751,38.1634 a 1.7901,1.7901 0 0 0 -0.9,0.0072 l -14.3289,3.8394 a 2.6883,2.6883 0 0 0 -1.8846,1.8549 L 5.2427507,38.32 a 2.7014996,2.7014996 0 0 0 -2.7,4.68 l 15.9534003,9.2088 a 1.8,1.8 0 0 0 0.9,0.2412 h 15.2928 a 1.8,1.8 0 0 0 0.8046,-0.1899 l 3.2202,-1.6101 v -10.8 z"
     fill="#ffbcab"
     id="path1642"
     style="fill:#b2c2de;fill-opacity:1;stroke-width:0.9" />
  <path
     d="M 2.7137507,8.35 H 15.313751 l 1.8,-7.2 H 6.3137507 Z"
     fill="#a97c50"
     id="path1644"
     style="stroke-width:0.9;fill:#263859;fill-opacity:1" />
  <path
     d="m 35.113751,8.35 -3.6,-7.2 h -10.8 l 1.8,7.2 z"
     fill="#a97c50"
     id="path1646"
     style="stroke-width:0.9;fill:#263859;fill-opacity:1" />
  <path
     d="m 45.913751,37.15 h -7.2 v 2.7 10.8 2.7 h 7.2 v -1.8 -12.6 z"
     fill="#006df0"
     id="path1648"
     style="fill:#6b778d;fill-opacity:1;stroke-width:0.9" />
  <path
     d="m 45.913751,38.95 h 7.2 v 12.6 h -7.2 z"
     fill="#2488ff"
     id="path1650"
     style="fill:#6b778d;fill-opacity:1;stroke-width:0.9" />
  <path
     d="M 2.7137507,8.35 H 35.113751 v 25.2 H 2.7137507 Z"
     fill="#bc9977"
     id="path1652"
     style="stroke-width:0.9;fill:#4f6182;fill-opacity:1" />
  <path
     d="m 18.913751,17.35 3.6,1.8 V 8.35 h -7.2 v 10.8 z"
     fill="#ff9811"
     id="path1654"
     style="stroke-width:0.9;fill:#17223b;fill-opacity:1" />
  <path
     d="m 22.513751,8.35 -1.8,-7.2 h -3.6 l -1.8,7.2 z"
     fill="#ee8700"
     id="path1656"
     style="stroke-width:0.9;fill:#17223b;fill-opacity:1" />
  <path
     d="m 18.132551,46.33 a 2.7,2.7 0 0 1 -3.3066,-1.9089 c -0.0243,-0.09 -0.0288,-0.18 -0.0441,-0.27 a 2.6865,2.6865 0 0 0 3.3507,3.0789 l 10.5237,-2.8197 -0.3249,-0.81 z"
     fill="#ff9478"
     id="path1662"
     style="fill:#9cafcf;fill-opacity:1;stroke-width:0.9" />
  <g
     id="g243"
     transform="matrix(0.07254464,0,0,0.07254464,30.75,30.75)"
     style="fill:#17223b;fill-opacity:1">
    <path
       d="M 408,184 H 272 c -4.41797,0 -8,-3.58203 -8,-8 V 40 C 264,17.910156 246.08984,0 224,0 201.91016,0 184,17.910156 184,40 v 136 c 0,4.41797 -3.58203,8 -8,8 H 40 c -22.089844,0 -40,17.91016 -40,40 0,22.08984 17.910156,40 40,40 h 136 c 4.41797,0 8,3.58203 8,8 v 136 c 0,22.08984 17.91016,40 40,40 22.08984,0 40,-17.91016 40,-40 V 272 c 0,-4.41797 3.58203,-8 8,-8 h 136 c 22.08984,0 40,-17.91016 40,-40 0,-22.08984 -17.91016,-40 -40,-40 z m 0,0"
       fill="#263859"
       data-original="#000000"
       id="path241"
       style="fill:#17223b;fill-opacity:1" />
  </g>
</svg>
