<?xml version="1.0" encoding="UTF-8" standalone="no"?>
<svg
   id="Capa_1"
   enable-background="new 0 0 512 512"
   height="512"
   viewBox="0 0 512 512"
   width="512"
   version="1.1"
   sodipodi:docname="customer.svg"
   inkscape:version="1.1 (ce6663b3b7, 2021-05-25)"
   xmlns:inkscape="http://www.inkscape.org/namespaces/inkscape"
   xmlns:sodipodi="http://sodipodi.sourceforge.net/DTD/sodipodi-0.dtd"
   xmlns="http://www.w3.org/2000/svg"
   xmlns:svg="http://www.w3.org/2000/svg">
  <defs
     id="defs1318" />
  <sodipodi:namedview
     id="namedview1316"
     pagecolor="#505050"
     bordercolor="#eeeeee"
     borderopacity="1"
     inkscape:pageshadow="0"
     inkscape:pageopacity="0"
     inkscape:pagecheckerboard="0"
     showgrid="false"
     inkscape:zoom="0.30728761"
     inkscape:cx="-161.08687"
     inkscape:cy="307.52948"
     inkscape:window-width="1366"
     inkscape:window-height="710"
     inkscape:window-x="0"
     inkscape:window-y="30"
     inkscape:window-maximized="1"
     inkscape:current-layer="Capa_1" />
  <path
     d="m 184.921,277.675 h 238.125 c 17.069,0 30.905,13.837 30.905,30.906 v 105.037 l -0.545,1 h -47.962 c -2.288,0 -4.15,1.862 -4.15,4.151 v 91.397 l -1,1.834 h -167.92 l -1,-2.527 V 319.151 c 0,-2.289 -1.862,-4.151 -4.15,-4.151 h -72.812 l -0.396,-1 v -5.42 c 0,-17.068 13.836,-30.905 30.905,-30.905 z"
     fill="#0593fc"
     id="path1229"
     style="fill:#6b778d;fill-opacity:1" />
  <g
     id="g1235"
     transform="matrix(-1,0,0,1,512,0)"
     style="fill:#b2c2de;fill-opacity:1">
    <path
       d="m 111.706,418.769 c 0,-2.845 -2.306,-5.151 -5.151,-5.151 H 58.048 v 93.231 c 0,2.845 2.306,5.151 5.151,5.151 h 48.507 z"
       fill="#f1b0a2"
       id="path1233"
       style="fill:#b2c2de;fill-opacity:1" />
  </g>
  <g
     id="g1243"
     transform="matrix(-1,0,0,1,512,0)"
     style="fill:#17223b;fill-opacity:1">
    <path
       d="m 267.713,20.856 h -29.846 c 3.571,6.022 5.629,13.041 5.629,20.535 V 82.88 h 17.492 c 16.183,0 29.348,13.165 29.348,29.347 v 16.229 h 14.891 c 4.313,0 8.434,0.826 12.226,2.313 V 70.596 c 0,-27.471 -22.269,-49.74 -49.74,-49.74 z"
       fill="#fb8801"
       id="path1241"
       style="fill:#17223b;fill-opacity:1" />
  </g>
  <path
     d="m 401.193,128.455 h -14.891 v -16.229 c 0,-16.182 -13.165,-29.347 -29.347,-29.347 H 267.503 V 41.391 C 267.504,18.531 286.035,0 308.894,0 h 93.796 c 5.926,0 10.73,4.804 10.73,10.729 v 120.038 c -3.792,-1.486 -7.914,-2.312 -12.227,-2.312 z"
     fill="#fe9901"
     id="path1245"
     style="fill:#17223b;fill-opacity:1" />
  <path
     d="m 401.193,128.455 h -14.891 v -16.229 c 0,-11.358 -6.49,-21.222 -15.953,-26.098 V 10.729 C 370.35,4.804 365.546,0 359.621,0 h 43.07 c 5.926,0 10.73,4.804 10.73,10.729 v 120.039 c -3.793,-1.487 -7.915,-2.313 -12.228,-2.313 z"
     fill="#fb8801"
     id="path1247"
     style="fill:#17223b;fill-opacity:1" />
  <path
     d="m 330.265,254.858 v 28.169 c 0,14.515 -11.767,26.281 -26.281,26.281 -14.515,0 -26.281,-11.767 -26.281,-26.281 v -28.169 z"
     fill="#eb9c8d"
     id="path1253"
     style="fill:#b2c2de;fill-opacity:1" />
  <path
     d="m 303,283.028 v -28.169 h 27.265 v 28.169 c 0,14.515 -11.767,26.281 -26.281,26.281 -4.991,0 -9.658,-1.392 -13.632,-3.808 7.583,-4.61 12.648,-12.95 12.648,-22.473 z"
     fill="#d78878"
     id="path1255"
     style="fill:#9cafcf;fill-opacity:1" />
  <g
     id="g1261"
     transform="matrix(-1,0,0,1,512,0)"
     style="fill:#9cafcf;fill-opacity:1">
    <path
       d="m 125.697,127.454 h -14.891 c -19.108,0 -34.598,15.49 -34.598,34.598 v 7.078 c 0,19.108 15.49,34.598 34.598,34.598 h 14.891 z"
       fill="#d78878"
       id="path1257"
       style="fill:#9cafcf;fill-opacity:1" />
    <path
       d="m 305.226,127.454 h -14.89 v 76.275 h 14.89 c 19.108,0 34.598,-15.49 34.598,-34.598 v -7.078 c 0,-19.108 -15.49,-34.599 -34.598,-34.599 z"
       fill="#eb9c8d"
       id="path1259"
       style="fill:#9cafcf;fill-opacity:1" />
  </g>
  <g
     id="g1265"
     transform="matrix(-1,0,0,1,512,0)"
     style="fill:#b2c2de;fill-opacity:1">
    <path
       d="m 240.91,255.859 h -65.788 c -27.849,0 -50.425,-22.576 -50.425,-50.425 v -93.207 c 0,-16.76 13.587,-30.347 30.347,-30.347 h 105.945 c 16.76,0 30.347,13.587 30.347,30.347 v 93.207 c -0.001,27.848 -22.577,50.425 -50.426,50.425 z"
       fill="#f1b0a2"
       id="path1263"
       style="fill:#b2c2de;fill-opacity:1" />
  </g>
  <g
     id="g1269"
     transform="matrix(-1,0,0,1,512,0)"
     style="fill:#9cafcf;fill-opacity:1">
    <path
       d="m 157.103,205.433 v -93.207 c 0,-16.76 13.587,-30.347 30.347,-30.347 h -32.405 c -16.76,0 -30.347,13.587 -30.347,30.347 v 93.207 c 0,27.849 22.576,50.425 50.425,50.425 h 32.405 c -27.849,0.001 -50.425,-22.576 -50.425,-50.425 z"
       fill="#eb9c8d"
       id="path1267"
       style="fill:#9cafcf;fill-opacity:1" />
  </g>
  <g
     id="g1273"
     transform="matrix(-1,0,0,1,512,0)"
     style="fill:#17223b;fill-opacity:1">
    <path
       d="m 208.017,224.217 c -10.312,0 -20.005,-4.015 -27.296,-11.306 -2.929,-2.929 -2.929,-7.678 0.001,-10.606 2.928,-2.929 7.677,-2.929 10.606,0 4.457,4.458 10.384,6.913 16.688,6.913 6.304,0 12.23,-2.455 16.688,-6.913 2.93,-2.929 7.679,-2.93 10.606,0 2.93,2.929 2.93,7.677 0.001,10.606 -7.29,7.291 -16.984,11.306 -27.294,11.306 z"
       fill="#a44f3e"
       id="path1271"
       style="fill:#17223b;fill-opacity:1" />
  </g>
  <g
     id="g1277"
     transform="matrix(-1,0,0,1,512,0)"
     style="fill:#17223b;fill-opacity:1">
    <path
       d="m 208.013,185.225 c -1.692,0 -3.396,-0.57 -4.797,-1.738 l -9.43,-7.857 c -2.629,-2.19 -3.442,-5.881 -1.977,-8.974 l 9.43,-19.899 c 1.773,-3.743 6.246,-5.34 9.989,-3.566 3.743,1.773 5.34,6.246 3.565,9.989 l -6.94,14.647 4.964,4.137 c 3.183,2.651 3.612,7.381 0.961,10.563 -1.483,1.779 -3.617,2.698 -5.765,2.698 z"
       fill="#a44f3e"
       id="path1275"
       style="fill:#17223b;fill-opacity:1" />
  </g>
  <g
     id="g1287"
     transform="matrix(-1,0,0,1,512,0)"
     style="fill:#17223b;fill-opacity:1">
    <g
       id="g1281"
       style="fill:#17223b;fill-opacity:1">
      <path
         d="m 168.18,159.811 c -4.143,0 -7.5,-3.358 -7.5,-7.5 v -15.1 c 0,-4.142 3.357,-7.5 7.5,-7.5 4.143,0 7.5,3.358 7.5,7.5 v 15.1 c 0,4.142 -3.358,7.5 -7.5,7.5 z"
         fill="#a44f3e"
         id="path1279"
         style="fill:#17223b;fill-opacity:1" />
    </g>
    <g
       id="g1285"
       style="fill:#17223b;fill-opacity:1">
      <path
         d="m 247.852,159.811 c -4.143,0 -7.5,-3.358 -7.5,-7.5 v -15.1 c 0,-4.142 3.357,-7.5 7.5,-7.5 4.143,0 7.5,3.358 7.5,7.5 v 15.1 c 0,4.142 -3.358,7.5 -7.5,7.5 z"
         fill="#a44f3e"
         id="path1283"
         style="fill:#17223b;fill-opacity:1" />
    </g>
  </g>
  <path
     d="M 63.199,512 H 232.374 V 319.151 c 0,-2.845 -2.306,-5.151 -5.151,-5.151 H 63.199 c -2.845,0 -5.151,2.306 -5.151,5.151 v 187.698 c 0,2.845 2.307,5.151 5.151,5.151 z"
     fill="#fed402"
     id="path1291"
     style="fill:#263859;fill-opacity:1" />
  <g
     id="g1309"
     transform="matrix(-1,0,0,1,512,0)"
     style="fill:#17223b;fill-opacity:1">
    <path
       d="m 406.604,359.217 c -4.143,0 -7.5,-3.358 -7.5,-7.5 v -50.629 c 0,-17.818 -14.496,-32.315 -32.314,-32.315 -17.818,0 -32.315,14.497 -32.315,32.315 v 50.629 c 0,4.142 -3.357,7.5 -7.5,7.5 -4.143,0 -7.5,-3.358 -7.5,-7.5 v -50.629 c 0,-26.089 21.226,-47.315 47.315,-47.315 26.089,0 47.314,21.226 47.314,47.315 v 50.629 c 0,4.142 -3.358,7.5 -7.5,7.5 z"
       fill="#266c8f"
       id="path1307"
       style="fill:#17223b;fill-opacity:1" />
  </g>
  <g
     id="g243"
     transform="matrix(0.58035714,0,0,0.58035714,246,246)"
     inkscape:transform-center-x="81.117205"
     inkscape:transform-center-y="117.65395"
     style="fill:#17223b;fill-opacity:1">
    <path
       d="M 408,184 H 272 c -4.41797,0 -8,-3.58203 -8,-8 V 40 C 264,17.910156 246.08984,0 224,0 201.91016,0 184,17.910156 184,40 v 136 c 0,4.41797 -3.58203,8 -8,8 H 40 c -22.089844,0 -40,17.91016 -40,40 0,22.08984 17.910156,40 40,40 h 136 c 4.41797,0 8,3.58203 8,8 v 136 c 0,22.08984 17.91016,40 40,40 22.08984,0 40,-17.91016 40,-40 V 272 c 0,-4.41797 3.58203,-8 8,-8 h 136 c 22.08984,0 40,-17.91016 40,-40 0,-22.08984 -17.91016,-40 -40,-40 z m 0,0"
       fill="#263859"
       data-original="#000000"
       id="path241"
       style="fill:#17223b;fill-opacity:1" />
  </g>
</svg>
