<?xml version="1.0" encoding="UTF-8" standalone="no"?>
<svg
   version="1.1"
   width="512"
   height="512"
   x="0"
   y="0"
   viewBox="0 0 24 24"
   style="enable-background:new 0 0 512 512"
   xml:space="preserve"
   class=""
   id="svg6"
   sodipodi:docname="demo.svg"
   inkscape:version="1.1 (ce6663b3b7, 2021-05-25)"
   xmlns:inkscape="http://www.inkscape.org/namespaces/inkscape"
   xmlns:sodipodi="http://sodipodi.sourceforge.net/DTD/sodipodi-0.dtd"
   xmlns="http://www.w3.org/2000/svg"
   xmlns:svg="http://www.w3.org/2000/svg"><defs
     id="defs10" /><sodipodi:namedview
     id="namedview8"
     pagecolor="#505050"
     bordercolor="#eeeeee"
     borderopacity="1"
     inkscape:pageshadow="0"
     inkscape:pageopacity="0"
     inkscape:pagecheckerboard="0"
     showgrid="false"
     inkscape:snap-bbox="true"
     inkscape:bbox-paths="true"
     inkscape:bbox-nodes="true"
     inkscape:snap-bbox-edge-midpoints="true"
     inkscape:snap-bbox-midpoints="true"
     inkscape:object-paths="true"
     inkscape:snap-object-midpoints="true"
     inkscape:snap-intersection-paths="true"
     inkscape:zoom="0.36529247"
     inkscape:cx="-316.185"
     inkscape:cy="187.52098"
     inkscape:window-width="1366"
     inkscape:window-height="710"
     inkscape:window-x="0"
     inkscape:window-y="30"
     inkscape:window-maximized="1"
     inkscape:current-layer="svg6" /><path
     id="rect34"
     style="fill:#b2c2de;fill-opacity:1;fill-rule:evenodd;stroke-width:0.0531553"
     d="M 2.6873871,4.7076404 H 21.385824 V 17.25 H 2.6873871 Z" /><g
     id="g4"><path
       clip-rule="evenodd"
       d="m1.25 6c0-1.51878 1.23122-2.75 2.75-2.75h16c1.5188 0 2.75 1.23122 2.75 2.75v10c0 1.5188-1.2312 2.75-2.75 2.75h-5.7865l.75 1.5h2.0365c.4142 0 .75.3358.75.75s-.3358.75-.75.75h-10c-.41421 0-.75-.3358-.75-.75s.33579-.75.75-.75h2.03647l.75-1.5h-5.78647c-1.51878 0-2.75-1.2312-2.75-2.75zm18.75 11.25h-16c-.69036 0-1.25-.5596-1.25-1.25v-10c0-.69036.55964-1.25 1.25-1.25h16c.6904 0 1.25.55964 1.25 1.25v10c0 .6904-.5596 1.25-1.25 1.25z"
       fill="#263859"
       fill-rule="evenodd"
       data-original="#000000"
       style=""
       class=""
       id="path2" /></g><g
     id="g1298"
     transform="matrix(0.37499996,0,0,0.37499996,7.3491055,6.2911332)"
     style="fill:#17223b;fill-opacity:1"><g
       id="g1244"
       style="fill:#17223b;fill-opacity:1">
	<path
   d="M 24.38,10.175 22.149,9.907 C 21.921,9.056 21.587,8.252 21.157,7.506 l 1.387,-1.763 c 0.212,-0.271 0.188,-0.69 -0.057,-0.934 l -2.299,-2.3 C 19.946,2.266 19.526,2.24 19.254,2.452 L 17.488,3.841 C 16.745,3.411 15.941,3.077 15.092,2.851 L 14.825,0.62 C 14.784,0.279 14.469,0 14.125,0 H 10.873 C 10.529,0 10.214,0.279 10.174,0.62 L 9.906,2.851 C 9.056,3.078 8.251,3.413 7.508,3.842 L 5.743,2.455 C 5.473,2.243 5.053,2.268 4.81,2.511 L 2.51,4.812 C 2.268,5.054 2.243,5.474 2.456,5.746 L 3.842,7.51 C 3.412,8.254 3.078,9.059 2.851,9.91 l -2.23,0.267 C 0.28,10.217 0,10.532 0,10.877 v 3.252 c 0,0.344 0.279,0.657 0.621,0.699 l 2.231,0.268 c 0.228,0.848 0.561,1.652 0.991,2.396 l -1.386,1.766 c -0.211,0.271 -0.187,0.69 0.057,0.934 l 2.296,2.301 c 0.243,0.242 0.663,0.269 0.933,0.057 l 1.766,-1.39 c 0.744,0.43 1.548,0.765 2.398,0.991 l 0.268,2.23 c 0.041,0.342 0.355,0.62 0.699,0.62 h 3.252 c 0.345,0 0.659,-0.278 0.699,-0.62 l 0.268,-2.23 c 0.851,-0.228 1.655,-0.562 2.398,-0.991 l 1.766,1.387 c 0.271,0.212 0.69,0.187 0.933,-0.056 l 2.299,-2.301 c 0.244,-0.242 0.269,-0.662 0.056,-0.935 l -1.388,-1.764 c 0.431,-0.744 0.764,-1.548 0.992,-2.397 l 2.23,-0.268 C 24.721,14.785 25,14.473 25,14.127 v -3.252 c 0.001,-0.346 -0.277,-0.659 -0.62,-0.7 z M 12.501,18.75 c -3.452,0 -6.25,-2.798 -6.25,-6.25 0,-3.452 2.798,-6.25 6.25,-6.25 3.452,0 6.25,2.798 6.25,6.25 0,3.452 -2.797,6.25 -6.25,6.25 z"
   id="path1242"
   style="fill:#17223b;fill-opacity:1" />
</g><g
       id="g1246"
       style="fill:#17223b;fill-opacity:1">
</g><g
       id="g1248"
       style="fill:#17223b;fill-opacity:1">
</g><g
       id="g1250"
       style="fill:#17223b;fill-opacity:1">
</g><g
       id="g1252"
       style="fill:#17223b;fill-opacity:1">
</g><g
       id="g1254"
       style="fill:#17223b;fill-opacity:1">
</g><g
       id="g1256"
       style="fill:#17223b;fill-opacity:1">
</g><g
       id="g1258"
       style="fill:#17223b;fill-opacity:1">
</g><g
       id="g1260"
       style="fill:#17223b;fill-opacity:1">
</g><g
       id="g1262"
       style="fill:#17223b;fill-opacity:1">
</g><g
       id="g1264"
       style="fill:#17223b;fill-opacity:1">
</g><g
       id="g1266"
       style="fill:#17223b;fill-opacity:1">
</g><g
       id="g1268"
       style="fill:#17223b;fill-opacity:1">
</g><g
       id="g1270"
       style="fill:#17223b;fill-opacity:1">
</g><g
       id="g1272"
       style="fill:#17223b;fill-opacity:1">
</g><g
       id="g1274"
       style="fill:#17223b;fill-opacity:1">
</g></g></svg>
