<?xml version="1.0" encoding="UTF-8" standalone="no"?>
<svg
   height="512pt"
   viewBox="0 0 512.00533 512"
   width="512pt"
   version="1.1"
   id="svg2257"
   sodipodi:docname="exit.svg"
   inkscape:version="1.1 (ce6663b3b7, 2021-05-25)"
   xmlns:inkscape="http://www.inkscape.org/namespaces/inkscape"
   xmlns:sodipodi="http://sodipodi.sourceforge.net/DTD/sodipodi-0.dtd"
   xmlns="http://www.w3.org/2000/svg"
   xmlns:svg="http://www.w3.org/2000/svg">
  <defs
     id="defs2261" />
  <sodipodi:namedview
     id="namedview2259"
     pagecolor="#505050"
     bordercolor="#eeeeee"
     borderopacity="1"
     inkscape:pageshadow="0"
     inkscape:pageopacity="0"
     inkscape:pagecheckerboard="0"
     inkscape:document-units="pt"
     showgrid="false"
     inkscape:zoom="0.65185547"
     inkscape:cx="2.3011236"
     inkscape:cy="341.33333"
     inkscape:window-width="1366"
     inkscape:window-height="710"
     inkscape:window-x="0"
     inkscape:window-y="30"
     inkscape:window-maximized="1"
     inkscape:current-layer="svg2257" />
  <path
     d="m298.667969 277.335938c-35.285157 0-64-28.714844-64-64 0-35.285157 28.714843-64 64-64h42.664062v-85.332032c0-35.285156-28.714843-63.99999975-64-63.99999975h-229.332031c-7.019531 0-13.589844 3.45312475-17.578125 9.23437475-3.96875 5.78125-4.863281 13.144531-2.347656 19.691407l154.667969 405.335937c3.136718 8.277344 11.070312 13.738281 19.925781 13.738281h74.664062c35.285157 0 64-28.714844 64-64v-106.667968zm0 0"
     fill="#2196f3"
     id="path2251"
     style="fill:#263859;fill-opacity:1" />
  <path
     d="m397.164062 318.382812c-7.957031-3.308593-13.164062-11.09375-13.164062-19.714843v-64h-85.332031c-11.777344 0-21.335938-9.554688-21.335938-21.332031 0-11.777344 9.558594-21.332032 21.335938-21.332032h85.332031v-64c0-8.621094 5.207031-16.40625 13.164062-19.714844 7.976563-3.304687 17.152344-1.46875 23.25 4.632813l85.335938 85.332031c8.339844 8.339844 8.339844 21.824219 0 30.164063l-85.335938 85.335937c-6.097656 6.097656-15.273437 7.933594-23.25 4.628906zm0 0"
     fill="#607d8b"
     id="path2253"
     style="fill:#17223b;fill-opacity:1" />
  <path
     d="m184.449219 44.84375-128.191407-42.730469c-28.929687-8.894531-56.257812 12.460938-56.257812 40.554688v384c0 18.242187 11.605469 34.519531 28.886719 40.492187l128.167969 42.730469c4.714843 1.449219 9.046874 2.113281 13.613281 2.113281 23.53125 0 42.664062-19.136718 42.664062-42.667968v-384c0-18.238282-11.605469-34.515626-28.882812-40.492188zm0 0"
     fill="#64b5f6"
     id="path2255"
     style="fill:#6b778d;fill-opacity:1" />
</svg>
