<?xml version="1.0" encoding="UTF-8" standalone="no"?>
<svg
   id="_x33_0"
   enable-background="new 0 0 64 64"
   height="512"
   viewBox="0 0 64 64"
   width="512"
   version="1.1"
   sodipodi:docname="inventory.svg"
   inkscape:version="1.1 (ce6663b3b7, 2021-05-25)"
   xmlns:inkscape="http://www.inkscape.org/namespaces/inkscape"
   xmlns:sodipodi="http://sodipodi.sourceforge.net/DTD/sodipodi-0.dtd"
   xmlns="http://www.w3.org/2000/svg"
   xmlns:svg="http://www.w3.org/2000/svg">
  <defs
     id="defs89" />
  <sodipodi:namedview
     id="namedview87"
     pagecolor="#505050"
     bordercolor="#eeeeee"
     borderopacity="1"
     inkscape:pageshadow="0"
     inkscape:pageopacity="0"
     inkscape:pagecheckerboard="0"
     showgrid="false"
     inkscape:zoom="0.61457523"
     inkscape:cx="148.88332"
     inkscape:cy="269.29169"
     inkscape:window-width="1366"
     inkscape:window-height="710"
     inkscape:window-x="0"
     inkscape:window-y="30"
     inkscape:window-maximized="1"
     inkscape:current-layer="_x33_0" />
  <g
     id="g4"
     style="fill:#263859;fill-opacity:1">
    <path
       d="m 58,22 v 4 H 23 13.7 6 v -4 h 4 14 16 14 z"
       fill="#aab2bd"
       id="path2"
       style="fill:#263859;fill-opacity:1" />
  </g>
  <g
     id="g8"
     style="fill:#263859;fill-opacity:1">
    <path
       d="M 62,5 V 62 H 58 V 48 26 22 5 c 0,-0.55 0.45,-1 1,-1 h 2 c 0.55,0 1,0.45 1,1 z"
       fill="#aab2bd"
       id="path6"
       style="fill:#263859;fill-opacity:1" />
  </g>
  <g
     id="g12"
     style="fill:#263859;fill-opacity:1">
    <path
       d="M 6,5 V 62 H 2 V 48 26 22 5 C 2,4.45 2.45,4 3,4 h 2 c 0.55,0 1,0.45 1,1 z"
       fill="#aab2bd"
       id="path10"
       style="fill:#263859;fill-opacity:1" />
  </g>
  <g
     id="g16"
     style="fill:#9cafcf;fill-opacity:1">
    <path
       d="M 40,48 V 62 H 36 V 46 h 4 z"
       fill="#ccd1d9"
       id="path14"
       style="fill:#9cafcf;fill-opacity:1" />
  </g>
  <g
     id="g20"
     style="fill:#b2c2de;fill-opacity:1">
    <path
       d="M 36,46 V 62 H 28 L 27.81,60.1 C 27.54,57.39 26.09,55.07 24,53.62 V 53.61 46 h 6 z"
       fill="#e6e9ed"
       id="path18"
       style="fill:#b2c2de;fill-opacity:1" />
  </g>
  <g
     id="g24"
     style="fill:#b2c2de;fill-opacity:1">
    <path
       d="M 40,48 H 58 V 62 H 40 Z"
       fill="#d3a06c"
       id="path22"
       style="fill:#b2c2de;fill-opacity:1" />
  </g>
  <g
     id="g28"
     style="fill:#6b778d;fill-opacity:1">
    <path
       d="m 30,32 v 14 h 10 v 2 H 54 V 32 Z"
       fill="#d3a06c"
       id="path26"
       style="fill:#6b778d;fill-opacity:1" />
  </g>
  <g
     id="g32"
     style="fill:#6b778d;fill-opacity:1">
    <path
       d="m 30,2 v 8 H 24 V 22 H 10 V 2 h 6 v 4 h 4 4 V 2 Z"
       fill="#d3a06c"
       id="path30"
       style="fill:#6b778d;fill-opacity:1" />
  </g>
  <g
     id="g36"
     style="fill:#6b778d;fill-opacity:1">
    <path
       d="M 54,2 V 22 H 40 V 10 H 34 V 2 h 6 v 4 h 4 4 V 2 Z"
       fill="#d3a06c"
       id="path34"
       style="fill:#6b778d;fill-opacity:1" />
  </g>
  <g
     id="g40"
     style="fill:#b2c2de;fill-opacity:1">
    <path
       d="M 24,10 H 40 V 22 H 24 Z"
       fill="#cf9e76"
       id="path38"
       style="fill:#b2c2de;fill-opacity:1" />
  </g>
  <g
     id="g44"
     style="fill:#263859;fill-opacity:1">
    <path
       d="m 30,10 h 4 v 4 h -4 z"
       fill="#dfb28b"
       id="path42"
       style="fill:#263859;fill-opacity:1" />
  </g>
  <g
     id="g48"
     style="fill:#263859;fill-opacity:1">
    <path
       d="m 46,48 h 6 v 6 h -6 z"
       fill="#b27946"
       id="path46"
       style="fill:#263859;fill-opacity:1" />
  </g>
  <g
     id="g52"
     style="fill:#17223b;fill-opacity:1">
    <path
       d="m 38,32 h 8 v 4 h -8 z"
       fill="#b27946"
       id="path50"
       style="fill:#17223b;fill-opacity:1" />
  </g>
  <g
     id="g56"
     style="fill:#17223b;fill-opacity:1">
    <path
       d="m 40,2 h 8 v 4 h -8 z"
       fill="#b27946"
       id="path54"
       style="fill:#17223b;fill-opacity:1" />
  </g>
  <g
     id="g60"
     style="fill:#17223b;fill-opacity:1">
    <path
       d="m 16,2 h 8 v 4 h -8 z"
       fill="#b27946"
       id="path58"
       style="fill:#17223b;fill-opacity:1" />
  </g>
  <g
     id="g64"
     style="fill:#17223b;fill-opacity:1">
    <path
       d="M 22,62 H 8 2 L 2.19,60.1 C 2.65,55.5 6.52,52 11.14,52 h 0.86 6 0.86 c 1.9,0 3.68,0.6 5.14,1.61 v 0.01 c 2.09,1.45 3.54,3.77 3.81,6.48 L 28,62 Z"
       fill="#b4dd7f"
       id="path62"
       style="fill:#17223b;fill-opacity:1" />
  </g>
  <g
     id="g68"
     style="fill:#17223b;fill-opacity:1">
    <path
       d="M 6.93,37.15 C 6.32,36.11 6,34.91 6,33.7 6,31.95 6.6,30.26 7.69,28.89 9.15,27.06 11.36,26 13.7,26 H 23 c 0.55,0 1,0.45 1,1 v 2 c 0,1.43 -0.6,2.71 -1.59,3.63 C 21.49,33.48 20.23,34 18.79,34 h -2.68 c -0.48,0 -0.96,-0.15 -1.33,-0.44 L 14.77,33.57 14,38 c -1.1,0 -2,0.9 -2,2 0,0.64 0.25,1.25 0.71,1.71 L 14,43 v 0.76 c 0,1.37 -0.77,2.63 -2,3.24 L 9.24,45.62 C 7.25,44.63 6,42.6 6,40.38 6,39.47 6.21,38.58 6.62,37.76 Z"
       fill="#656d78"
       id="path66"
       style="fill:#17223b;fill-opacity:1" />
  </g>
  <g
     id="g72"
     style="fill:#b2c2de;fill-opacity:1">
    <path
       d="m 14.78,33.56 c 0.37,0.29 0.85,0.44 1.33,0.44 h 2.68 c 1.44,0 2.7,-0.52 3.62,-1.37 l 0.01,0.01 C 23.25,34 25,37 26,41 l -2,1 v 1 c 0,2.76 -2.24,5 -5,5 h -1 v 4 h -6 v -5 c 1.23,-0.61 2,-1.87 2,-3.24 V 43 L 12.71,41.71 C 12.25,41.25 12,40.64 12,40 c 0,-1.1 0.9,-2 2,-2 l 0.77,-4.43 z"
       fill="#f0d0b4"
       id="path70"
       style="fill:#b2c2de;fill-opacity:1" />
  </g>
</svg>
