<?xml version="1.0" encoding="UTF-8" standalone="no"?>
<svg
   id="Capa_1"
   enable-background="new 0 0 512 512"
   height="512"
   viewBox="0 0 512 512"
   width="512"
   version="1.1"
   sodipodi:docname="report.svg"
   inkscape:version="1.1 (ce6663b3b7, 2021-05-25)"
   xmlns:inkscape="http://www.inkscape.org/namespaces/inkscape"
   xmlns:sodipodi="http://sodipodi.sourceforge.net/DTD/sodipodi-0.dtd"
   xmlns="http://www.w3.org/2000/svg"
   xmlns:svg="http://www.w3.org/2000/svg">
  <defs
     id="defs59" />
  <sodipodi:namedview
     id="namedview57"
     pagecolor="#505050"
     bordercolor="#eeeeee"
     borderopacity="1"
     inkscape:pageshadow="0"
     inkscape:pageopacity="0"
     inkscape:pagecheckerboard="0"
     showgrid="false"
     inkscape:zoom="0.43457031"
     inkscape:cx="-58.678652"
     inkscape:cy="74.786517"
     inkscape:window-width="1366"
     inkscape:window-height="710"
     inkscape:window-x="0"
     inkscape:window-y="30"
     inkscape:window-maximized="1"
     inkscape:current-layer="Capa_1" />
  <path
     d="M 428.707,476.243 H 119.05 c -10.035,0 -18.171,-8.135 -18.171,-18.171 V 18.171 C 100.879,8.135 109.014,0 119.05,0 h 309.657 c 10.035,0 18.171,8.135 18.171,18.171 v 439.902 c -10e-4,10.035 -8.136,18.17 -18.171,18.17 z"
     fill="#3c87d0"
     id="path2"
     style="fill:#6b778d;fill-opacity:1" />
  <path
     d="M 392.95,512 H 83.293 C 73.258,512 65.122,503.865 65.122,493.829 V 53.927 c 0,-10.035 8.135,-18.171 18.171,-18.171 H 392.95 c 10.035,0 18.171,8.135 18.171,18.171 v 439.902 c 0,10.036 -8.135,18.171 -18.171,18.171 z"
     fill="#c8effe"
     id="path4"
     style="fill:#b2c2de;fill-opacity:1" />
  <path
     d="m 392.95,35.757 h -37.975 c 10.035,0 18.171,8.135 18.171,18.171 V 493.83 c 0,10.035 -8.135,18.171 -18.171,18.171 h 37.975 c 10.035,0 18.171,-8.135 18.171,-18.171 V 53.927 c 0,-10.035 -8.135,-18.17 -18.171,-18.17 z"
     fill="#b3dafe"
     id="path6"
     style="fill:#9cafcf;fill-opacity:1" />
  <g
     id="g20"
     style="fill:#17223b;fill-opacity:1">
    <g
       id="g10"
       style="fill:#17223b;fill-opacity:1">
      <path
         d="m 365.959,118.27 h -99.892 c -3.969,0 -7.187,-3.218 -7.187,-7.187 0,-3.969 3.218,-7.187 7.187,-7.187 h 99.892 c 3.969,0 7.187,3.218 7.187,7.187 -0.001,3.97 -3.218,7.187 -7.187,7.187 z"
         fill="#3e5959"
         id="path8"
         style="fill:#17223b;fill-opacity:1" />
    </g>
    <g
       id="g14"
       style="fill:#17223b;fill-opacity:1">
      <path
         d="m 365.959,151.89 h -99.892 c -3.969,0 -7.187,-3.218 -7.187,-7.187 0,-3.969 3.218,-7.187 7.187,-7.187 h 99.892 c 3.969,0 7.187,3.218 7.187,7.187 -0.001,3.969 -3.218,7.187 -7.187,7.187 z"
         fill="#3e5959"
         id="path12"
         style="fill:#17223b;fill-opacity:1" />
    </g>
    <g
       id="g18"
       style="fill:#17223b;fill-opacity:1">
      <path
         d="m 365.959,185.509 h -99.892 c -3.969,0 -7.187,-3.218 -7.187,-7.187 0,-3.969 3.218,-7.187 7.187,-7.187 h 99.892 c 3.969,0 7.187,3.218 7.187,7.187 -0.001,3.97 -3.218,7.187 -7.187,7.187 z"
         fill="#3e5959"
         id="path16"
         style="fill:#17223b;fill-opacity:1" />
    </g>
  </g>
  <g
     id="g24"
     style="fill:#17223b;fill-opacity:1">
    <path
       d="m 365.959,373.137 h -92.861 c -3.969,0 -7.187,-3.218 -7.187,-7.187 0,-3.969 3.218,-7.187 7.187,-7.187 h 92.861 c 3.969,0 7.187,3.218 7.187,7.187 -0.001,3.969 -3.218,7.187 -7.187,7.187 z"
       fill="#3e5959"
       id="path22"
       style="fill:#17223b;fill-opacity:1" />
  </g>
  <g
     id="g28"
     style="fill:#17223b;fill-opacity:1">
    <path
       d="m 210.177,303.009 h -99.892 c -3.969,0 -7.187,-3.218 -7.187,-7.187 0,-3.969 3.218,-7.187 7.187,-7.187 h 99.892 c 3.969,0 7.187,3.218 7.187,7.187 0,3.969 -3.218,7.187 -7.187,7.187 z"
       fill="#3e5959"
       id="path26"
       style="fill:#17223b;fill-opacity:1" />
  </g>
  <g
     id="g32"
     style="fill:#17223b;fill-opacity:1">
    <path
       d="m 210.177,269.389 h -99.892 c -3.969,0 -7.187,-3.218 -7.187,-7.187 0,-3.969 3.218,-7.187 7.187,-7.187 h 99.892 c 3.969,0 7.187,3.218 7.187,7.187 0,3.97 -3.218,7.187 -7.187,7.187 z"
       fill="#3e5959"
       id="path30"
       style="fill:#17223b;fill-opacity:1" />
  </g>
  <path
     d="m 169.859,74.888 v 66.757 h 66.757 c 0,-36.868 -29.888,-66.757 -66.757,-66.757 z"
     fill="#ee6161"
     id="path34"
     style="fill:#263859;fill-opacity:1" />
  <path
     d="m 169.859,74.888 c -36.869,0 -66.757,29.888 -66.757,66.757 0,36.869 29.888,66.757 66.757,66.757 36.869,0 66.757,-29.888 66.757,-66.757 h -66.757 z"
     fill="#fea95c"
     id="path36"
     style="fill:#6b778d;fill-opacity:1" />
  <path
     d="M 368.354,318.3 H 248.343 c -2.646,0 -4.791,-2.145 -4.791,-4.791 v -68.993 c 0,-2.646 2.145,-4.791 4.791,-4.791 h 120.011 c 2.646,0 4.791,2.145 4.791,4.791 v 68.993 c 0,2.646 -2.145,4.791 -4.791,4.791 z"
     fill="#ee6161"
     id="path38"
     style="fill:#263859;fill-opacity:1" />
  <path
     d="m 128.883,460.612 h -20.994 c -2.646,0 -4.791,-2.145 -4.791,-4.791 V 351.016 c 0,-2.646 2.145,-4.791 4.791,-4.791 h 20.994 c 2.646,0 4.791,2.145 4.791,4.791 v 104.805 c 0,2.646 -2.145,4.791 -4.791,4.791 z"
     fill="#fe7701"
     id="path40"
     style="fill:#17223b;fill-opacity:1" />
  <path
     d="M 185.924,460.612 H 164.93 c -2.646,0 -4.791,-2.145 -4.791,-4.791 v -77.306 c 0,-2.646 2.145,-4.791 4.791,-4.791 h 20.994 c 2.646,0 4.791,2.145 4.791,4.791 v 77.306 c 0,2.646 -2.145,4.791 -4.791,4.791 z"
     fill="#fe9738"
     id="path42"
     style="fill:#263859;fill-opacity:1" />
  <path
     d="m 242.966,460.612 h -20.994 c -2.646,0 -4.791,-2.145 -4.791,-4.791 v -43.046 c 0,-2.646 2.145,-4.791 4.791,-4.791 h 20.994 c 2.646,0 4.791,2.145 4.791,4.791 v 43.046 c 0,2.646 -2.145,4.791 -4.791,4.791 z"
     fill="#fea95c"
     id="path44"
     style="fill:#6b778d;fill-opacity:1" />
  <g
     id="g48"
     style="fill:#17223b;fill-opacity:1">
    <path
       d="m 365.959,408.448 h -92.861 c -3.969,0 -7.187,-3.218 -7.187,-7.187 0,-3.969 3.218,-7.187 7.187,-7.187 h 92.861 c 3.969,0 7.187,3.218 7.187,7.187 -0.001,3.97 -3.218,7.187 -7.187,7.187 z"
       fill="#3e5959"
       id="path46"
       style="fill:#17223b;fill-opacity:1" />
  </g>
  <g
     id="g52"
     style="fill:#17223b;fill-opacity:1">
    <path
       d="m 365.959,443.76 h -92.861 c -3.969,0 -7.187,-3.218 -7.187,-7.187 0,-3.969 3.218,-7.187 7.187,-7.187 h 92.861 c 3.969,0 7.187,3.218 7.187,7.187 -0.001,3.969 -3.218,7.187 -7.187,7.187 z"
       fill="#3e5959"
       id="path50"
       style="fill:#17223b;fill-opacity:1" />
  </g>
</svg>
