<?xml version="1.0" encoding="UTF-8" standalone="no"?>
<svg
   id="Capa_1"
   enable-background="new 0 0 503.46 503.46"
   height="512"
   viewBox="0 0 503.46 503.46"
   width="512"
   version="1.1"
   sodipodi:docname="sale.svg"
   inkscape:version="1.1 (ce6663b3b7, 2021-05-25)"
   xmlns:inkscape="http://www.inkscape.org/namespaces/inkscape"
   xmlns:sodipodi="http://sodipodi.sourceforge.net/DTD/sodipodi-0.dtd"
   xmlns="http://www.w3.org/2000/svg"
   xmlns:svg="http://www.w3.org/2000/svg">
  <defs
     id="defs59" />
  <sodipodi:namedview
     id="namedview57"
     pagecolor="#505050"
     bordercolor="#eeeeee"
     borderopacity="1"
     inkscape:pageshadow="0"
     inkscape:pageopacity="0"
     inkscape:pagecheckerboard="0"
     showgrid="false"
     inkscape:zoom="0.61457523"
     inkscape:cx="196.88395"
     inkscape:cy="309.97019"
     inkscape:window-width="1366"
     inkscape:window-height="710"
     inkscape:window-x="0"
     inkscape:window-y="30"
     inkscape:window-maximized="1"
     inkscape:current-layer="Capa_1" />
  <path
     d="m 289.943,85.063 h 66.768 v 79.995 h -66.768 z"
     fill="#dbeaff"
     id="path2"
     style="fill:#b2c2de;fill-opacity:1" />
  <path
     d="m 289.948,85.063 h 25.431 v 79.997 h -25.431 z"
     fill="#c3ddff"
     id="path4"
     style="fill:#9cafcf;fill-opacity:1" />
  <path
     d="M 477.34,420.1 H 26.13 L 42.16,163.52 c 0.51,-8.04 7.18,-14.3 15.23,-14.3 h 388.68 c 8.06,0 14.73,6.26 15.23,14.3 z"
     fill="#8bb3ea"
     id="path6"
     style="fill:#6b778d;fill-opacity:1" />
  <path
     d="m 353.819,227.019 h -26.351 c -2.761,0 -5,-2.239 -5,-5 v -26.351 c 0,-2.761 2.239,-5 5,-5 h 26.351 c 2.761,0 5,2.239 5,5 v 26.351 c 0,2.762 -2.238,5 -5,5 z"
     id="path8"
     style="fill:#b2c2de;fill-opacity:1" />
  <path
     d="m 417.434,227.019 h -26.351 c -2.761,0 -5,-2.239 -5,-5 v -26.351 c 0,-2.761 2.239,-5 5,-5 h 26.351 c 2.761,0 5,2.239 5,5 v 26.351 c 0,2.762 -2.239,5 -5,5 z"
     id="path10"
     style="fill:#b2c2de;fill-opacity:1" />
  <path
     d="m 290.205,227.019 h -26.351 c -2.761,0 -5,-2.239 -5,-5 v -26.351 c 0,-2.761 2.239,-5 5,-5 h 26.351 c 2.761,0 5,2.239 5,5 v 26.351 c 0,2.762 -2.239,5 -5,5 z"
     id="path12"
     style="fill:#b2c2de;fill-opacity:1" />
  <path
     d="m 353.819,292.838 h -26.351 c -2.761,0 -5,-2.239 -5,-5 v -26.351 c 0,-2.761 2.239,-5 5,-5 h 26.351 c 2.761,0 5,2.239 5,5 v 26.351 c 0,2.761 -2.238,5 -5,5 z"
     id="path14"
     style="fill:#b2c2de;fill-opacity:1" />
  <path
     d="m 290.205,292.838 h -26.351 c -2.761,0 -5,-2.239 -5,-5 v -26.351 c 0,-2.761 2.239,-5 5,-5 h 26.351 c 2.761,0 5,2.239 5,5 v 26.351 c 0,2.761 -2.239,5 -5,5 z"
     id="path16"
     style="fill:#b2c2de;fill-opacity:1" />
  <path
     d="m 353.819,351.155 h -26.351 c -2.761,0 -5,-2.239 -5,-5 v -26.351 c 0,-2.761 2.239,-5 5,-5 h 26.351 c 2.761,0 5,2.239 5,5 v 26.351 c 0,2.761 -2.238,5 -5,5 z"
     id="path18"
     style="fill:#b2c2de;fill-opacity:1" />
  <path
     d="m 417.434,351.155 h -26.351 c -2.761,0 -5,-2.239 -5,-5 v -84.668 c 0,-2.761 2.239,-5 5,-5 h 26.351 c 2.761,0 5,2.239 5,5 v 84.668 c 0,2.761 -2.239,5 -5,5 z"
     fill="#ff8086"
     id="path22"
     style="fill:#17223b;fill-opacity:1" />
  <path
     d="m 290.205,351.155 h -26.351 c -2.761,0 -5,-2.239 -5,-5 v -26.351 c 0,-2.761 2.239,-5 5,-5 h 26.351 c 2.761,0 5,2.239 5,5 v 26.351 c 0,2.761 -2.239,5 -5,5 z"
     fill="#dbeaff"
     id="path24"
     style="fill:#b2c2de;fill-opacity:1" />
  <path
     d="m 449.79,15 v 65.41 c 0,8.28 -6.72,15 -15,15 H 211.87 c -8.29,0 -15,-6.72 -15,-15 V 15 c 0,-8.28 6.71,-15 15,-15 h 222.92 c 8.28,0 15,6.72 15,15 z"
     fill="#8bb3ea"
     id="path26"
     style="fill:#6b778d;fill-opacity:1" />
  <path
     d="m 419.27,34.52 v 26.37 c 0,2.21 -1.79,4 -4,4 H 231.38 c -2.21,0 -4,-1.79 -4,-4 V 34.52 c 0,-2.21 1.79,-4 4,-4 h 183.89 c 2.21,0 4,1.79 4,4 z"
     fill="#b3e59f"
     id="path28"
     style="fill:#b2c2de;fill-opacity:1" />
  <path
     d="m 202.342,227.896 v 65.474 l -29.953,16.254 c 0,4.496 -61.887,-1.532 -66.383,-1.532 L 70.404,293.37 v -65.474 c 0,-4.496 3.642,-8.138 8.138,-8.138 h 115.662 c 4.496,0 8.138,3.641 8.138,8.138 z"
     fill="#ffe07d"
     id="path30"
     style="fill:#17223b;fill-opacity:1" />
  <path
     d="M 175.16,113.78 V 306.67 H 97.59 V 113.78 c 0,-4.42 3.58,-8 8,-8 h 61.57 c 4.41,0 8,3.58 8,8 z"
     fill="#ecbd83"
     id="path32"
     style="fill:#b2c2de;fill-opacity:1" />
  <path
     d="m 129.73,105.78 c -4.29,0.22 -7.71,3.79 -7.71,8.13 V 306.67 H 97.59 V 113.78 c 0,-4.42 3.58,-8 8,-8 z"
     fill="#e2a975"
     id="path34"
     style="fill:#9cafcf;fill-opacity:1" />
  <path
     d="m 202.34,293.37 v 26.14 c 0,4.5 -3.64,8.14 -8.14,8.14 H 78.54 c -4.49,0 -8.14,-3.64 -8.14,-8.14 v -26.14 z"
     fill="#dbeaff"
     id="path36"
     style="fill:#263859;fill-opacity:1" />
  <path
     d="m 503.02,424.38 v 63.82 c 0,8.42 -6.82,15.26 -15.26,15.26 H 397.5 L 248.39,488.687 95.88,503.46 H 15.7 c -8.43,0 -15.26,-6.84 -15.26,-15.26 v -63.82 c 0,-8.42 6.83,-15.26 15.26,-15.26 h 472.06 c 8.44,0 15.26,6.84 15.26,15.26 z"
     fill="#dbeaff"
     id="path46"
     style="fill:#263859;fill-opacity:1" />
  <path
     d="m 397.5,483.5 v 19.96 H 95.88 V 483.5 c 0,-8.42 6.82,-15.26 15.26,-15.26 h 271.1 c 8.43,0 15.26,6.84 15.26,15.26 z"
     fill="#8bb3ea"
     id="path48"
     style="fill:#6b778d;fill-opacity:1" />
</svg>
